<mxfile host="app.diagrams.net" modified="2024-05-10T04:50:30.067Z" agent="Mozilla/5.0 (Windows NT 10.0; Win64; x64) AppleWebKit/537.36 (KHTML, like Gecko) Chrome/124.0.0.0 Safari/537.36" etag="1drW0ha2SKqbJne3iDFn" version="24.3.1" type="device">
  <diagram name="PÃ¡gina-1" id="_L_8MoSdANKLA71blTiu">
    <mxGraphModel dx="1114" dy="566" grid="1" gridSize="10" guides="1" tooltips="1" connect="1" arrows="1" fold="1" page="1" pageScale="1" pageWidth="827" pageHeight="1169" math="0" shadow="0">
      <root>
        <mxCell id="0" />
        <mxCell id="1" parent="0" />
        <mxCell id="TacsmDujMF1xKq3y6q2E-2" value="&lt;font style=&quot;font-size: 13px;&quot;&gt;Start&lt;/font&gt;" style="strokeWidth=2;html=1;shape=mxgraph.flowchart.start_1;whiteSpace=wrap;" vertex="1" parent="1">
          <mxGeometry x="35" y="10" width="125" height="60" as="geometry" />
        </mxCell>
        <mxCell id="TacsmDujMF1xKq3y6q2E-3" value="&lt;font style=&quot;font-size: 13px;&quot;&gt;Calculate diameter (2 * radius)&lt;/font&gt;" style="rounded=0;whiteSpace=wrap;html=1;" vertex="1" parent="1">
          <mxGeometry x="490" y="150" width="120" height="60" as="geometry" />
        </mxCell>
        <mxCell id="TacsmDujMF1xKq3y6q2E-4" value="&lt;font style=&quot;font-size: 13px;&quot;&gt;Collect radius&lt;/font&gt;" style="rounded=0;whiteSpace=wrap;html=1;" vertex="1" parent="1">
          <mxGeometry x="490" y="10" width="120" height="60" as="geometry" />
        </mxCell>
        <mxCell id="TacsmDujMF1xKq3y6q2E-5" value="&lt;font style=&quot;font-size: 13px;&quot;&gt;Calculate area (pi * radius squared)&lt;/font&gt;" style="rounded=0;whiteSpace=wrap;html=1;" vertex="1" parent="1">
          <mxGeometry x="40" y="150" width="120" height="60" as="geometry" />
        </mxCell>
        <mxCell id="TacsmDujMF1xKq3y6q2E-6" value="&lt;font style=&quot;font-size: 13px;&quot;&gt;Calculate circumference (2 * pi * radius)&lt;/font&gt;" style="rounded=0;whiteSpace=wrap;html=1;" vertex="1" parent="1">
          <mxGeometry x="260" y="150" width="120" height="60" as="geometry" />
        </mxCell>
        <mxCell id="TacsmDujMF1xKq3y6q2E-7" value="&lt;font style=&quot;font-size: 13px;&quot;&gt;Print results (Diameter, Circumference, Area)&lt;/font&gt;" style="rounded=0;whiteSpace=wrap;html=1;" vertex="1" parent="1">
          <mxGeometry x="40" y="290" width="120" height="60" as="geometry" />
        </mxCell>
        <mxCell id="TacsmDujMF1xKq3y6q2E-9" value="&lt;font style=&quot;font-size: 13px;&quot;&gt;End&lt;/font&gt;" style="strokeWidth=2;html=1;shape=mxgraph.flowchart.start_1;whiteSpace=wrap;" vertex="1" parent="1">
          <mxGeometry x="270" y="290" width="100" height="60" as="geometry" />
        </mxCell>
        <mxCell id="TacsmDujMF1xKq3y6q2E-10" value="&lt;font style=&quot;font-size: 13px;&quot;&gt;What is the radius of the circle?&lt;/font&gt;" style="rounded=1;whiteSpace=wrap;html=1;" vertex="1" parent="1">
          <mxGeometry x="260" y="10" width="120" height="60" as="geometry" />
        </mxCell>
        <mxCell id="TacsmDujMF1xKq3y6q2E-12" value="" style="edgeStyle=none;orthogonalLoop=1;jettySize=auto;html=1;rounded=0;exitX=1;exitY=0.5;exitDx=0;exitDy=0;exitPerimeter=0;entryX=0;entryY=0.5;entryDx=0;entryDy=0;" edge="1" parent="1" source="TacsmDujMF1xKq3y6q2E-2" target="TacsmDujMF1xKq3y6q2E-10">
          <mxGeometry width="100" relative="1" as="geometry">
            <mxPoint x="120" y="-20" as="sourcePoint" />
            <mxPoint x="220" y="-20" as="targetPoint" />
            <Array as="points" />
          </mxGeometry>
        </mxCell>
        <mxCell id="TacsmDujMF1xKq3y6q2E-13" value="" style="endArrow=classic;html=1;rounded=0;exitX=1;exitY=0.5;exitDx=0;exitDy=0;" edge="1" parent="1" source="TacsmDujMF1xKq3y6q2E-10" target="TacsmDujMF1xKq3y6q2E-4">
          <mxGeometry width="50" height="50" relative="1" as="geometry">
            <mxPoint x="389" y="50" as="sourcePoint" />
            <mxPoint x="439" as="targetPoint" />
          </mxGeometry>
        </mxCell>
        <mxCell id="TacsmDujMF1xKq3y6q2E-14" value="" style="endArrow=classic;html=1;rounded=0;exitX=0;exitY=0.5;exitDx=0;exitDy=0;" edge="1" parent="1" source="TacsmDujMF1xKq3y6q2E-3" target="TacsmDujMF1xKq3y6q2E-6">
          <mxGeometry width="50" height="50" relative="1" as="geometry">
            <mxPoint x="413.5" y="205" as="sourcePoint" />
            <mxPoint x="463.5" y="155" as="targetPoint" />
          </mxGeometry>
        </mxCell>
        <mxCell id="TacsmDujMF1xKq3y6q2E-15" value="" style="endArrow=classic;html=1;rounded=0;exitX=0;exitY=0.5;exitDx=0;exitDy=0;" edge="1" parent="1" source="TacsmDujMF1xKq3y6q2E-6" target="TacsmDujMF1xKq3y6q2E-5">
          <mxGeometry width="50" height="50" relative="1" as="geometry">
            <mxPoint x="180" y="205" as="sourcePoint" />
            <mxPoint x="230" y="155" as="targetPoint" />
          </mxGeometry>
        </mxCell>
        <mxCell id="TacsmDujMF1xKq3y6q2E-16" value="" style="endArrow=classic;html=1;rounded=0;exitX=0.5;exitY=1;exitDx=0;exitDy=0;entryX=0.5;entryY=0;entryDx=0;entryDy=0;" edge="1" parent="1" source="TacsmDujMF1xKq3y6q2E-5" target="TacsmDujMF1xKq3y6q2E-7">
          <mxGeometry width="50" height="50" relative="1" as="geometry">
            <mxPoint x="90" y="280" as="sourcePoint" />
            <mxPoint x="140" y="230" as="targetPoint" />
          </mxGeometry>
        </mxCell>
        <mxCell id="TacsmDujMF1xKq3y6q2E-17" value="" style="endArrow=classic;html=1;rounded=0;exitX=1;exitY=0.5;exitDx=0;exitDy=0;entryX=0;entryY=0.5;entryDx=0;entryDy=0;entryPerimeter=0;" edge="1" parent="1" source="TacsmDujMF1xKq3y6q2E-7" target="TacsmDujMF1xKq3y6q2E-9">
          <mxGeometry width="50" height="50" relative="1" as="geometry">
            <mxPoint x="180" y="350" as="sourcePoint" />
            <mxPoint x="230" y="300" as="targetPoint" />
          </mxGeometry>
        </mxCell>
        <mxCell id="TacsmDujMF1xKq3y6q2E-18" value="" style="endArrow=classic;html=1;rounded=0;exitX=0.5;exitY=1;exitDx=0;exitDy=0;entryX=0.5;entryY=0;entryDx=0;entryDy=0;" edge="1" parent="1" source="TacsmDujMF1xKq3y6q2E-4" target="TacsmDujMF1xKq3y6q2E-3">
          <mxGeometry width="50" height="50" relative="1" as="geometry">
            <mxPoint x="525" y="140" as="sourcePoint" />
            <mxPoint x="575" y="90" as="targetPoint" />
          </mxGeometry>
        </mxCell>
      </root>
    </mxGraphModel>
  </diagram>
</mxfile>
